<?xml version="1.0" encoding="utf-8"?>
<!-- Generator: Adobe Illustrator 17.0.0, SVG Export Plug-In . SVG Version: 6.00 Build 0)  -->
<!DOCTYPE svg PUBLIC "-//W3C//DTD SVG 1.1//EN" "http://www.w3.org/Graphics/SVG/1.1/DTD/svg11.dtd">
<svg version="1.1" xmlns="http://www.w3.org/2000/svg" xmlns:xlink="http://www.w3.org/1999/xlink" x="0px" y="0px"
	 width="40.207px" height="50.742px" viewBox="0 0 40.207 50.742" enable-background="new 0 0 40.207 50.742" xml:space="preserve">
<g id="Primary">
</g>
<g id="IU_Tab">
	<polygon fill="#884548" points="27.079,6.748 27.079,10.568 29.726,10.568 29.726,31.854 24.132,31.854 24.132,3.824 27.103,3.824 
		27.103,0 13.158,0 13.158,3.824 16.128,3.824 16.128,31.854 10.474,31.854 10.474,10.568 13.118,10.568 13.118,6.748 0,6.748 
		0,10.568 2.961,10.568 2.961,35.217 7.784,40.138 16.128,40.138 16.128,45.817 13.166,45.817 13.166,50.742 27.092,50.742 
		27.092,45.817 24.132,45.817 24.132,40.138 32.409,40.138 37.231,35.217 37.231,10.568 40.207,10.568 40.207,6.748 	"/>
</g>
<g id="measure_guides">
</g>
</svg>
