<?xml version="1.0" encoding="utf-8"?>
<!-- Generator: Adobe Illustrator 17.0.0, SVG Export Plug-In . SVG Version: 6.00 Build 0)  -->
<!DOCTYPE svg PUBLIC "-//W3C//DTD SVG 1.1//EN" "http://www.w3.org/Graphics/SVG/1.1/DTD/svg11.dtd">
<svg version="1.1" xmlns="http://www.w3.org/2000/svg" xmlns:xlink="http://www.w3.org/1999/xlink" x="0px" y="0px"
	 width="368.104px" height="72px" viewBox="0 0 368.104 72" enable-background="new 0 0 368.104 72" xml:space="preserve">
<g id="Primary">
</g>
<g id="IU_Tab">
</g>
<g id="measure_guides">
	<g>
		<rect x="0" y="0" fill="#884548" width="61.395" height="72"/>
		<polygon fill="#FFFFFF" points="37.622,17.357 37.622,21.178 40.27,21.178 40.27,42.463 34.676,42.463 34.676,14.434 
			37.647,14.434 37.647,10.609 23.701,10.609 23.701,14.434 26.672,14.434 26.672,42.463 21.018,42.463 21.018,21.178 
			23.662,21.178 23.662,17.357 10.544,17.357 10.544,21.178 13.505,21.178 13.505,45.826 18.328,50.747 26.672,50.747 
			26.672,56.427 23.71,56.427 23.71,61.352 37.636,61.352 37.636,56.427 34.676,56.427 34.676,50.747 42.952,50.747 47.775,45.826 
			47.775,21.178 50.751,21.178 50.751,17.357 		"/>
		<path fill="#FFFFFF" d="M77.735,24.024h4.942v24.062h-4.942V24.024z"/>
		<path fill="#FFFFFF" d="M86.41,24.024h5.105l5.528,10.795c0.781,1.528,1.171,2.309,1.951,4.129h0.065V24.024h4.487v24.062h-4.585
			l-6.243-11.673c-0.683-1.301-1.04-1.983-1.756-3.577h-0.065v15.25H86.41V24.024z"/>
		<path fill="#FFFFFF" d="M107.301,24.024h6.308c6.471,0,11.023,2.666,11.023,11.966c0,9.365-4.65,12.096-11.023,12.096h-6.308
			V24.024z M114.065,43.957c4.162,0,5.625-2.146,5.625-7.967c0-5.625-1.463-7.804-5.658-7.804h-1.789v15.771H114.065z"/>
		<path fill="#FFFFFF" d="M127.53,24.024h4.942v24.062h-4.942V24.024z"/>
		<path fill="#FFFFFF" d="M139.15,48.086h-4.617l7.056-24.16h4.748l7.056,24.16h-4.975l-1.301-5.073h-6.633L139.15,48.086z
			 M145.491,36.738c-0.65-2.537-1.171-4.325-1.626-6.568H143.8c-0.423,2.276-0.975,4-1.659,6.536l-0.65,2.471h4.617L145.491,36.738z
			"/>
		<path fill="#FFFFFF" d="M155.424,24.024h5.105l5.528,10.795c0.78,1.528,1.171,2.309,1.951,4.129h0.065V24.024h4.487v24.062h-4.585
			l-6.244-11.673c-0.683-1.301-1.04-1.983-1.756-3.577h-0.065v15.25h-4.487V24.024z"/>
		<path fill="#FFFFFF" d="M179.258,48.086h-4.617l7.057-24.16h4.747l7.056,24.16h-4.975l-1.301-5.073h-6.633L179.258,48.086z
			 M185.599,36.738c-0.65-2.537-1.17-4.325-1.626-6.568h-0.064c-0.423,2.276-0.976,4-1.658,6.536l-0.65,2.471h4.617L185.599,36.738z
			"/>
		<path fill="#FFFFFF" d="M202.831,39.762V24.024h4.943V39.47c0,3.349,0.942,4.845,3.414,4.845c2.471,0,3.414-1.528,3.414-4.813
			V24.024h4.715v15.705c0,5.561-2.374,8.747-8.194,8.747S202.831,45.29,202.831,39.762z"/>
		<path fill="#FFFFFF" d="M222.826,24.024h5.105l5.527,10.795c0.78,1.528,1.171,2.309,1.951,4.129h0.065V24.024h4.487v24.062h-4.585
			l-6.243-11.673c-0.684-1.301-1.041-1.983-1.756-3.577h-0.066v15.25h-4.487V24.024z"/>
		<path fill="#FFFFFF" d="M243.809,24.024h4.942v24.062h-4.942V24.024z"/>
		<path fill="#FFFFFF" d="M250.812,24.024h4.976l2.829,11.38c0.585,2.276,1.008,4,1.463,6.406h0.064
			c0.488-2.374,0.943-4.065,1.496-6.34l2.927-11.446h4.617l-6.796,24.16h-4.78L250.812,24.024z"/>
		<path fill="#FFFFFF" d="M271.216,24.024h13.787v4.162h-8.845v5.43h6.373v3.935h-6.373v6.471h9.3v4.064h-14.242V24.024z"/>
		<path fill="#FFFFFF" d="M287.798,24.024h7.512c5.072,0,8.161,2.146,8.161,7.544c0,3.284-1.626,5.463-3.967,6.406l4.585,10.113
			h-5.105l-4.064-8.91h-2.276v8.91h-4.845V24.024z M295.146,35.405c2.406,0,3.609-1.008,3.609-3.739
			c0-2.601-1.203-3.512-3.609-3.512h-2.504v7.251H295.146z"/>
		<path fill="#FFFFFF" d="M305.076,42.786l4-2.016c1.04,2.081,2.698,3.805,5.04,3.805c2.081,0,3.186-1.105,3.186-2.731
			c0-1.983-1.983-2.894-4.26-3.87c-3.154-1.333-7.023-2.861-7.023-7.706c0-4,3.251-6.699,7.641-6.699
			c4.13,0,6.634,2.309,8.097,5.365l-3.837,2.081c-1.008-2.016-2.341-3.381-4.357-3.381c-1.723,0-2.698,1.041-2.698,2.406
			c0,1.919,1.82,2.829,3.967,3.805c3.219,1.398,7.316,2.926,7.316,7.804c0,3.642-2.797,6.861-8.031,6.861
			C309.4,48.509,306.702,46.168,305.076,42.786z"/>
		<path fill="#FFFFFF" d="M324.917,24.024h4.942v24.062h-4.942V24.024z"/>
		<path fill="#FFFFFF" d="M337.722,28.186h-5.723v-4.162h16.421v4.162h-5.756v19.9h-4.942V28.186z"/>
		<path fill="#FFFFFF" d="M356.366,38.657l-6.764-14.632h5.04l4.292,10.145H359l4.292-10.145h4.813l-6.796,14.6v9.462h-4.942V38.657
			z"/>
	</g>
</g>
</svg>
