<?xml version="1.0" encoding="utf-8"?>
<!-- Generator: Adobe Illustrator 17.0.0, SVG Export Plug-In . SVG Version: 6.00 Build 0)  -->
<!DOCTYPE svg PUBLIC "-//W3C//DTD SVG 1.1//EN" "http://www.w3.org/Graphics/SVG/1.1/DTD/svg11.dtd">
<svg version="1.1" id="Слой_1" xmlns="http://www.w3.org/2000/svg" xmlns:xlink="http://www.w3.org/1999/xlink" x="0px" y="0px"
	 width="167.651px" height="42.838px" viewBox="0 0 167.651 42.838" enable-background="new 0 0 167.651 42.838"
	 xml:space="preserve">
<g>
	<g>
		<g>
			<path fill="#5D9DD6" d="M30.116,42.396V16.553h6.83c1.593,0,2.809,0.077,3.65,0.229c1.179,0.197,2.166,0.57,2.963,1.121
				c0.797,0.551,1.438,1.323,1.923,2.316c0.485,0.993,0.728,2.084,0.728,3.273c0,2.04-0.649,3.767-1.947,5.18
				c-1.299,1.413-3.645,2.119-7.038,2.119h-3.934v11.604H30.116z M33.291,27.96h3.983c2.051,0,3.508-0.382,4.37-1.146
				c0.862-0.764,1.293-1.838,1.293-3.224c0-1.004-0.254-1.863-0.761-2.578c-0.507-0.714-1.176-1.186-2.005-1.415
				c-0.534-0.142-1.522-0.213-2.962-0.213h-3.917V27.96z"/>
			<path fill="#5D9DD6" d="M50.041,42.396V16.553h16.238v2.831H53.216v8.089h12.533v2.815H53.216v9.277h13.619v2.831H50.041z"/>
			<path fill="#5D9DD6" d="M70.741,42.396V16.553h3.257L88.451,37.24V16.553h3.044v25.843h-3.257L73.786,21.692v20.704H70.741z"/>
			<g>
				<path fill="#5D9DD6" d="M22.613,19.745c2.588,2.643,3.882,5.831,3.882,9.564s-1.294,6.922-3.882,9.565
					c-2.588,2.643-5.71,3.965-9.365,3.965c-3.656,0-6.778-1.322-9.365-3.965C1.294,36.231,0,33.042,0,29.309
					s1.294-6.921,3.882-9.564c2.588-2.643,5.71-3.964,9.365-3.964C16.903,15.78,20.025,17.102,22.613,19.745z M13.248,19.233
					c-2.728,0-5.055,0.983-6.98,2.948c-1.925,1.966-2.887,4.342-2.887,7.128c0,2.787,0.965,5.165,2.895,7.136
					c1.93,1.971,4.254,2.957,6.972,2.957c2.728,0,5.055-0.985,6.98-2.957c1.925-1.971,2.887-4.35,2.887-7.136
					c0-2.786-0.963-5.162-2.887-7.128C18.302,20.216,15.976,19.233,13.248,19.233z"/>
			</g>
		</g>
		<path fill-rule="evenodd" clip-rule="evenodd" fill="#898B8E" d="M136.343,8.483c0,1.769,0,5.308,0,5.308l2.82,0.041
			c0,0,0.378,0.462,0.581,0.675c0,0.014,0-0.026,0-0.012c0,7.022,0,14.044,0,21.065c0,0.014,0,0.028,0,0.042
			c-0.314,0.349-0.574,0.753-0.912,1.078c-0.875,0.032-1.626-0.06-2.488-0.042c0,1.825,0,3.649,0,5.474c-0.663,0-1.327,0-1.99,0
			c0-0.76,0-1.52,0-2.281c-1.671,1.093-3.808,2.08-6.51,2.281c-0.553,0-1.106,0-1.659,0c-3.975-0.351-6.646-2.007-8.791-4.188
			c0-0.014,0-0.028,0-0.042c0.97-1.048,1.753-2.283,2.322-3.732c-1.562,0-3.124,0-4.686,0c-0.014,0-0.028,0-0.041,0
			c-0.351-0.906-0.674-1.841-0.829-2.944c0-0.014,0-0.028,0-0.041c1.773,0.065,3.641,0.036,5.474,0.041c0.014,0,0.028,0,0.041,0
			c0.981,3.252,4.131,6.085,8.501,5.391c3.317-0.527,5.956-3.295,6.179-6.884c0.169-2.718-0.749-4.578-2.115-5.971
			c-1.129-1.152-2.57-2.091-4.603-2.239c-3.889-0.283-6.019,1.742-7.381,4.022c-0.014,0-0.028,0-0.042,0
			c-0.537-2.13-1.539-3.796-2.778-5.225c0-0.014,0-0.028,0-0.041c1.781-1.978,4.313-3.553,7.672-4.064
			c3.721-0.566,6.986,0.558,9.247,2.156c0-1.493,0-2.986,0-4.479c-1.092-0.097-2.364-0.014-3.525-0.041c0-1.783,0-3.566,0-5.349
			C132.666,8.483,134.504,8.483,136.343,8.483z"/>
		<path fill-rule="evenodd" clip-rule="evenodd" fill="#3C6BA1" d="M136.343,8.483c1.133,0,2.267,0,3.4,0c0,1.99,0,4.034,0,6.025
			c-0.207-0.209-0.581-0.675-0.581-0.675l-2.82-0.041C136.343,13.791,136.343,10.252,136.343,8.483z"/>
		<path fill-rule="evenodd" clip-rule="evenodd" fill="#5C9DD7" d="M139.743,8.483c3.304,0,6.607,0,9.911,0c0,1.769,0,3.539,0,5.308
			c-0.981,0.028-2.073-0.055-2.986,0.041c1.769,2.212,3.552,4.41,5.349,6.593c1.773-2.18,3.546-4.361,5.308-6.552
			c0.04-0.001,0.032-0.051,0.042-0.083c-0.995,0-1.99,0-2.986,0c0-1.769,0-3.539,0-5.308c4.423,0,8.846,0,13.27,0
			c0,1.769,0,3.539,0,5.308c-0.926,0.028-1.963-0.055-2.82,0.041c-3.076,3.669-6.053,7.438-9.081,11.155
			c3.088,3.934,6.28,7.764,9.413,11.652c0.829,0,1.659,0,2.488,0c0,1.825,0,3.649,0,5.474c-4.423,0-8.846,0-13.27,0
			c0-1.825,0-3.649,0-5.474c1.106,0,2.212,0,3.317,0c-1.775-2.303-3.804-4.711-5.681-7.049c-1.914,2.343-3.81,4.704-5.723,7.049
			c1.12,0,2.239,0,3.359,0c0,1.825,0,3.649,0,5.474c-1.935,0-3.87,0-5.806,0c0-1.811,0-3.622,0-5.432
			c-1.274-0.023-2.75-0.014-4.105-0.042c0-0.346,0-0.691,0-1.037c0-0.014,0-0.028,0-0.042c2.858-3.501,5.699-7.017,8.542-10.533
			c-2.817-3.542-5.669-7.048-8.542-10.533c0-0.014,0-0.028,0-0.041C139.743,12.464,139.743,10.473,139.743,8.483z"/>
		<path fill-rule="evenodd" clip-rule="evenodd" fill="#898B8E" d="M146.668,13.832c0.912-0.097,2.004-0.014,2.986-0.041
			C148.741,13.887,147.65,13.804,146.668,13.832z"/>
		<path fill-rule="evenodd" clip-rule="evenodd" fill="#898B8E" d="M154.381,13.791c0.995,0,1.99,0,2.986,0
			c-0.009,0.032-0.001,0.082-0.042,0.083C156.441,13.749,155.266,13.915,154.381,13.791z"/>
		<path fill-rule="evenodd" clip-rule="evenodd" fill="#898B8E" d="M164.831,13.832c0.857-0.097,1.894-0.014,2.82-0.041
			C166.794,13.887,165.757,13.804,164.831,13.832z"/>
		<path fill-rule="evenodd" clip-rule="evenodd" fill="#898B8E" d="M107.44,16.071c0.249-0.069,0.787-0.069,1.037,0
			C108.131,16.071,107.785,16.071,107.44,16.071z"/>
		<path fill-rule="evenodd" clip-rule="evenodd" fill="#9D2B66" d="M99.146,19.472c2.092-1.806,4.576-3.22,8.294-3.4
			c0.346,0,0.691,0,1.037,0c3.66,0.169,6.093,1.564,8.128,3.359c0.176,0.211,0.37,0.404,0.581,0.581
			c0.065,0.101,0.148,0.183,0.249,0.249c0,0.014,0,0.028,0,0.041c-1.341,1.368-2.319,3.099-2.944,5.183c-0.014,0-0.028,0-0.041,0
			c-1.194-2.193-3.008-3.765-6.179-3.981c-0.16-0.004-0.52-0.022-0.705,0c-2.133,0.078-3.533,0.89-4.727,1.908
			c-0.225,0.19-0.432,0.397-0.622,0.622c-0.681,0.771-1.225,1.678-1.576,2.778c4.509,0.041,9.026,0.014,13.518,0.041
			c-0.198,1.295-0.253,3.031,0,4.313c0,0.014,0,0.028,0,0.041c-4.506,0-9.012,0-13.518,0c0.811,2.608,2.534,4.472,5.225,5.183
			c2.89,0.765,5.404-0.24,6.967-1.617c0.188-0.165,0.617-0.521,0.705-0.622c0.428-0.04,1.046,0,1.451,0c0.014,0,0.028,0,0.041,0
			c0.57,1.461,1.431,2.633,2.364,3.732c0,0.014,0,0.028,0,0.042c-2.09,2.236-4.77,3.883-8.791,4.188c-0.428,0-0.857,0-1.285,0
			c-3.72-0.293-6.548-1.779-8.584-3.815c-2.036-2.036-3.555-4.868-3.774-8.667c0-0.359,0-0.719,0-1.078
			c0.18-3.718,1.594-6.202,3.4-8.294C98.638,20.014,98.901,19.752,99.146,19.472z"/>
		<path fill-rule="evenodd" clip-rule="evenodd" fill="#672531" d="M117.433,20.301c1.239,1.429,2.241,3.095,2.778,5.225
			c-0.789,1.368-1.136,3.803-0.58,5.681c-1.833-0.006-3.701,0.024-5.474-0.041c-0.253-1.281-0.198-3.017,0-4.313
			c0.276,0,0.553,0,0.829,0c-0.033-0.423-0.32-0.951-0.498-1.368C115.114,23.4,116.092,21.669,117.433,20.301z"/>
		<path fill-rule="evenodd" clip-rule="evenodd" fill="#898B8E" d="M114.448,25.484c0.014,0,0.028,0,0.041,0
			c0.177,0.417,0.464,0.945,0.498,1.368c-0.276,0-0.553,0-0.829,0C114.242,26.384,114.368,25.957,114.448,25.484z"/>
		<path fill-rule="evenodd" clip-rule="evenodd" fill="#9D2B66" d="M120.212,25.526c0.014,0,0.028,0,0.042,0
			c0.388,1.631,0.636,3.868,0.249,5.681c-0.276,0-0.553,0-0.829,0c-0.014,0-0.028,0-0.041,0
			C119.076,29.328,119.423,26.894,120.212,25.526z"/>
		<path fill-rule="evenodd" clip-rule="evenodd" fill="#672531" d="M115.028,34.151c1.562,0,3.124,0,4.686,0
			c-0.569,1.449-1.352,2.684-2.322,3.732C116.459,36.784,115.599,35.613,115.028,34.151z"/>
		<path fill-rule="evenodd" clip-rule="evenodd" fill="#3C6BA1" d="M139.743,35.603c0,0.346,0,0.691,0,1.037
			c1.378,0.013,2.845-0.005,4.105,0.042c0,1.811,0,3.621,0,5.432c-2.502,0-5.004,0-7.506,0c0-1.825,0-3.649,0-5.474
			c0.862-0.019,1.613,0.074,2.488,0.042C139.169,36.355,139.429,35.952,139.743,35.603z"/>
		<path fill-rule="evenodd" clip-rule="evenodd" fill="#898B8E" d="M116.604,19.43c0.211,0.176,0.404,0.37,0.581,0.581
			C116.974,19.835,116.78,19.641,116.604,19.43z"/>
		<path fill-rule="evenodd" clip-rule="evenodd" fill="#898B8E" d="M102.215,24.033c0.19-0.225,0.397-0.432,0.622-0.622
			C102.647,23.636,102.44,23.843,102.215,24.033z"/>
	</g>
	<g>
		<path fill="#9B9B9A" d="M0.654,9.885V0.172h3.664c0.645,0,1.137,0.031,1.477,0.093c0.477,0.079,0.877,0.231,1.199,0.454
			c0.322,0.223,0.582,0.536,0.779,0.937C7.969,2.058,8.068,2.5,8.068,2.981c0,0.826-0.263,1.525-0.788,2.097
			C6.753,5.65,5.804,5.936,4.43,5.936H1.939v3.949H0.654z M1.939,4.79H4.45c0.83,0,1.42-0.155,1.769-0.464
			c0.349-0.309,0.523-0.744,0.523-1.305c0-0.406-0.103-0.754-0.308-1.044c-0.205-0.289-0.476-0.48-0.812-0.573
			C5.406,1.347,5.007,1.318,4.424,1.318H1.939V4.79z"/>
		<path fill="#9B9B9A" d="M9.313,5.155c0-1.612,0.433-2.874,1.299-3.786C11.477,0.456,12.595,0,13.964,0
			c0.897,0,1.705,0.214,2.425,0.643c0.72,0.428,1.269,1.026,1.646,1.792c0.378,0.766,0.566,1.635,0.566,2.607
			c0,0.985-0.199,1.866-0.596,2.644c-0.397,0.777-0.961,1.366-1.689,1.766c-0.729,0.4-1.515,0.6-2.359,0.6
			c-0.914,0-1.731-0.221-2.451-0.663c-0.72-0.442-1.265-1.045-1.636-1.809C9.499,6.815,9.313,6.007,9.313,5.155z M10.638,5.174
			c0,1.171,0.315,2.093,0.944,2.766c0.629,0.674,1.419,1.01,2.369,1.01c0.967,0,1.763-0.34,2.388-1.02
			c0.625-0.68,0.938-1.645,0.938-2.895c0-0.791-0.134-1.481-0.401-2.07c-0.267-0.59-0.658-1.047-1.173-1.371
			c-0.515-0.325-1.092-0.487-1.733-0.487c-0.91,0-1.693,0.313-2.349,0.937C10.966,2.669,10.638,3.713,10.638,5.174z"/>
		<path fill="#9B9B9A" d="M21.954,9.885l-2.577-9.713h1.318l1.477,6.367c0.159,0.667,0.296,1.33,0.411,1.988
			c0.247-1.038,0.393-1.636,0.437-1.795l1.848-6.559h1.55l1.391,4.916c0.349,1.219,0.601,2.365,0.755,3.439
			c0.124-0.614,0.285-1.318,0.484-2.114l1.524-6.241h1.292l-2.663,9.713h-1.239l-2.047-7.401c-0.172-0.618-0.274-0.998-0.305-1.14
			c-0.102,0.446-0.197,0.826-0.285,1.14l-2.06,7.401H21.954z"/>
		<path fill="#9B9B9A" d="M33.092,9.885V0.172h7.023v1.146h-5.738v2.975h5.373v1.14h-5.373v3.306h5.963v1.146H33.092z"/>
		<path fill="#9B9B9A" d="M42.135,9.885V0.172h4.307c0.866,0,1.524,0.087,1.974,0.262c0.451,0.175,0.81,0.483,1.08,0.924
			C49.766,1.8,49.9,2.288,49.9,2.822c0,0.689-0.223,1.27-0.669,1.742c-0.446,0.473-1.135,0.773-2.067,0.901
			c0.34,0.163,0.598,0.325,0.775,0.484c0.375,0.345,0.731,0.775,1.067,1.292l1.689,2.644h-1.617l-1.285-2.021
			c-0.375-0.583-0.685-1.029-0.928-1.338C46.623,6.217,46.406,6,46.213,5.877c-0.192-0.124-0.388-0.21-0.586-0.258
			c-0.146-0.031-0.384-0.046-0.716-0.046h-1.491v4.313H42.135z M43.421,4.459h2.763c0.587,0,1.047-0.061,1.378-0.182
			c0.331-0.121,0.583-0.316,0.755-0.583c0.172-0.267,0.258-0.558,0.258-0.871c0-0.459-0.167-0.837-0.5-1.133
			c-0.334-0.296-0.86-0.444-1.58-0.444h-3.074V4.459z"/>
		<path fill="#9B9B9A" d="M51.941,9.885V0.172h7.023v1.146h-5.738v2.975H58.6v1.14h-5.373v3.306h5.963v1.146H51.941z"/>
		<path fill="#9B9B9A" d="M60.965,9.885V0.172h3.346c0.755,0,1.332,0.046,1.729,0.139c0.557,0.128,1.031,0.36,1.424,0.696
			c0.512,0.433,0.895,0.986,1.149,1.66c0.254,0.674,0.381,1.443,0.381,2.309c0,0.738-0.086,1.391-0.258,1.961
			c-0.172,0.57-0.393,1.041-0.663,1.415c-0.269,0.373-0.564,0.667-0.884,0.881c-0.32,0.214-0.707,0.377-1.159,0.487
			c-0.453,0.11-0.973,0.166-1.56,0.166H60.965z M62.25,8.739h2.074c0.64,0,1.143-0.06,1.507-0.179
			c0.364-0.119,0.655-0.287,0.871-0.504c0.305-0.305,0.542-0.714,0.712-1.229c0.17-0.514,0.255-1.138,0.255-1.872
			c0-1.016-0.167-1.797-0.5-2.342c-0.334-0.545-0.739-0.911-1.216-1.097c-0.345-0.132-0.899-0.199-1.663-0.199H62.25V8.739z"/>
		<path fill="#9B9B9A" d="M74.481,9.885V0.172h3.644c0.742,0,1.337,0.098,1.786,0.295c0.448,0.197,0.799,0.499,1.053,0.908
			c0.254,0.409,0.381,0.836,0.381,1.282c0,0.415-0.113,0.806-0.338,1.173c-0.225,0.367-0.565,0.663-1.02,0.888
			c0.587,0.172,1.039,0.466,1.355,0.881c0.316,0.415,0.474,0.906,0.474,1.471c0,0.455-0.096,0.878-0.288,1.269
			c-0.192,0.391-0.43,0.692-0.712,0.904c-0.283,0.212-0.637,0.372-1.063,0.48c-0.426,0.108-0.949,0.162-1.567,0.162H74.481z
			 M75.766,4.254h2.1c0.57,0,0.978-0.037,1.226-0.113c0.327-0.097,0.573-0.258,0.739-0.484c0.166-0.225,0.248-0.508,0.248-0.848
			c0-0.322-0.077-0.606-0.232-0.851c-0.155-0.245-0.376-0.413-0.663-0.504c-0.287-0.09-0.78-0.136-1.477-0.136h-1.941V4.254z
			 M75.766,8.739h2.418c0.415,0,0.707-0.015,0.875-0.046c0.296-0.053,0.543-0.141,0.742-0.265c0.199-0.124,0.362-0.304,0.49-0.54
			c0.128-0.236,0.192-0.509,0.192-0.818c0-0.362-0.093-0.677-0.278-0.944c-0.186-0.267-0.443-0.455-0.772-0.563
			C79.104,5.454,78.63,5.4,78.012,5.4h-2.246V8.739z"/>
		<path fill="#9B9B9A" d="M86.32,9.885V5.771l-3.743-5.599h1.564l1.915,2.928c0.353,0.548,0.682,1.095,0.987,1.643
			c0.291-0.508,0.645-1.08,1.06-1.716l1.882-2.856h1.497l-3.876,5.599v4.114H86.32z"/>
	</g>
</g>
</svg>
